<svg width="40" height="40" viewBox="0 0 40 40" fill="none" xmlns="http://www.w3.org/2000/svg">
  <!-- Background circle with gradient -->
  <circle cx="20" cy="20" r="20" fill="url(#logoGradient)"/>
  
  <!-- Seedling/Plant icon -->
  <path d="M20 8L24 14H28L23 18L26 24H20L14 24L17 18L12 14H16L20 8Z" fill="white"/>
  
  <!-- Rice grain details -->
  <ellipse cx="18" cy="16" rx="1.5" ry="3" fill="rgba(255,255,255,0.8)" transform="rotate(-15 18 16)"/>
  <ellipse cx="22" cy="16" rx="1.5" ry="3" fill="rgba(255,255,255,0.8)" transform="rotate(15 22 16)"/>
  <ellipse cx="20" cy="20" rx="1.5" ry="3" fill="rgba(255,255,255,0.8)"/>
  
  <!-- Leaf elements -->
  <path d="M15 12C15 12 12 10 10 12C8 14 10 16 12 16C14 16 15 14 15 12Z" fill="rgba(255,255,255,0.6)"/>
  <path d="M25 12C25 12 28 10 30 12C32 14 30 16 28 16C26 16 25 14 25 12Z" fill="rgba(255,255,255,0.6)"/>
  
  <!-- Philippine sun rays (simplified) -->
  <path d="M20 4L20.5 6L20 8L19.5 6L20 4Z" fill="#FCD116"/>
  <path d="M28 12L26 12.5L24 12L26 11.5L28 12Z" fill="#FCD116"/>
  <path d="M28 28L26 27.5L24 28L26 28.5L28 28Z" fill="#FCD116"/>
  <path d="M12 28L14 27.5L16 28L14 28.5L12 28Z" fill="#FCD116"/>
  <path d="M12 12L14 12.5L16 12L14 11.5L12 12Z" fill="#FCD116"/>
  
  <!-- Gradient definition -->
  <defs>
    <linearGradient id="logoGradient" x1="0%" y1="0%" x2="100%" y2="100%">
      <stop offset="0%" style="stop-color:#10B981;stop-opacity:1" />
      <stop offset="100%" style="stop-color:#059669;stop-opacity:1" />
    </linearGradient>
  </defs>
</svg>